# xmcd
#
# Track frame offsets:
#	150
#	10095
#	37306
#	59778
#	101660
#	132223
#	156475
#	174407
#	188773
#	205688
#	232612
#	260154
#	324699
#
# Disc length: 4699 seconds
#
# Revision: 1
# Processed by: cddbd v1.5.2PL0 Copyright (c) Steve Scherf et al.
# Submitted via: CDmax 2.0
#
DISCID=b812590d
DTITLE=Eric Clapton - Little Wing At The Hall (disc1)
DYEAR=2006
DGENRE=Blues
TTITLE0=Introduction
TTITLE1=Tell the Truth
TTITLE2=Key to the Highway
TTITLE3=Got to Get Better in a Little While
TTITLE4=Little Wing
TTITLE5=Motherless Children
TTITLE6=Drifting Blues
TTITLE7=Outside Woman Blues
TTITLE8=Nobody Knows You When You're Down and out
TTITLE9=Running on Faith
TTITLE10=Why Does Love Got to be So Sad?
TTITLE11=Little Queen of Spades
TTITLE12=Further on Up the Road
EXTD=Eric Clapton\tguitar, vocals\nDoyle Bramhall II\tguitar\nDerek Trucks\tg
EXTD=uitar\nChris Stainton\tkeyboards\nTim Carmon\tkeyboards\nWillie Weeks\tb
EXTD=ass\nSteve Jordan\tdrums\nMichelle John\tbacking vocals\nSharon White\tb
EXTD=acking vocals\n\nRecorded live at Budokan, Tokyo, Japan on December 8th
EXTD=, 2006
EXTT0=
EXTT1=
EXTT2=
EXTT3=
EXTT4=
EXTT5=
EXTT6=
EXTT7=
EXTT8=
EXTT9=
EXTT10=
EXTT11=
EXTT12=
PLAYORDER=
